<?xml version="1.0" encoding="UTF-8" standalone="no"?>
<!DOCTYPE svg PUBLIC "-//W3C//DTD SVG 1.1//EN" "http://www.w3.org/Graphics/SVG/1.1/DTD/svg11.dtd">
<svg width="100%" height="100%" viewBox="0 0 128 128" version="1.1" xmlns="http://www.w3.org/2000/svg" xmlns:xlink="http://www.w3.org/1999/xlink" xml:space="preserve" xmlns:serif="http://www.serif.com/" style="fill-rule:evenodd;clip-rule:evenodd;">
    <path d="M126,16C126,8.273 119.727,2 112,2L16,2C8.273,2 2,8.273 2,16L2,112C2,119.727 8.273,126 16,126L112,126C119.727,126 126,119.727 126,112L126,16Z" style="fill:rgb(163,36,60);stroke:rgb(183,65,124);stroke-width:4px;"/>
    <g transform="matrix(1,0,0,1,10.9769,7.68786)">
        <path d="M42.293,47.745L42.301,47.744L42.393,47.73C42.484,47.718 42.575,47.704 42.666,47.687L42.393,47.73L42.317,47.738L42.293,47.745C41.026,47.905 40.215,47.594 39.82,47.386C40.587,47.708 41.442,47.841 42.317,47.738C43.165,47.489 44.06,47.225 44.109,47.2C44.903,46.786 45.34,46.317 45.587,46.03C45.91,45.655 47.589,36.588 40.821,37.858C40.607,37.899 40.399,37.952 40.198,38.019C39.66,38.154 38.181,38.53 37.897,38.618C36.2,39.145 34.516,39.742 32.863,40.393C30.126,41.469 27.531,42.842 24.886,44.114C24.652,43.103 24.444,42.085 24.227,41.072C23.036,35.501 22.271,29.817 21.782,24.144C21.536,21.294 21.955,18.139 21.42,15.343C20.901,12.632 18.279,10.853 15.569,11.372C12.858,11.891 11.079,14.512 11.598,17.223C12.071,19.693 11.602,22.484 11.819,25.003C12.343,31.089 13.171,37.186 14.449,43.163C14.899,45.267 15.329,47.384 15.943,49.449C16.373,50.895 17.37,53.287 18.681,54.304C19.642,55.05 20.896,55.535 22.411,55.513C23.979,55.491 26.474,54.402 27.321,54.017C30.409,52.617 33.363,50.942 36.523,49.699C37.949,49.138 39.4,48.622 40.864,48.167L42.293,47.745Z" style="fill:rgb(255,194,225);"/>
    </g>
    <g transform="matrix(1,0,0,1,11.0823,8.97004)">
        <path d="M48.821,15.12C46.312,15.883 44.799,18.482 45.418,21.065C45.559,21.656 45.801,22.198 46.12,22.675C46.035,23.026 45.979,23.408 45.955,23.825C45.899,24.786 46.681,27.92 46.735,28.101C46.81,28.349 46.884,28.598 46.958,28.846C47.048,29.146 47.141,29.444 47.226,29.744C47.319,30.073 47.405,30.404 47.492,30.734C47.584,31.087 47.679,31.44 47.766,31.795C48.416,34.458 48.844,37.174 48.904,39.916C48.858,40.716 48.719,43.411 48.866,44.059C49.275,45.862 50.336,46.783 51.078,47.265C51.59,47.598 52.274,47.911 53.119,48.068C53.698,48.176 55.009,48.158 55.373,48.15C57.093,48.225 58.817,48.244 60.534,48.096C68.495,47.413 76.928,43.077 80.444,35.529C83.943,28.019 82.301,16.923 74.586,12.443C70.931,10.322 66.478,9.749 62.344,10.1C58.748,10.405 55.097,11.387 51.889,13.054C50.991,13.521 49.132,14.889 48.821,15.12ZM58.84,38.185C59.12,38.174 59.4,38.157 59.679,38.133C64.26,37.74 69.357,35.649 71.38,31.306C72.218,29.508 72.485,27.263 72.097,25.202C71.785,23.543 71.051,21.955 69.565,21.092C67.671,19.992 65.331,19.882 63.189,20.064C60.891,20.259 58.551,20.861 56.502,21.927C56.327,22.018 56.151,22.133 55.974,22.263C56.406,23.219 56.515,24.268 56.323,25.259L56.541,25.987C56.644,26.334 56.752,26.679 56.85,27.027C56.959,27.413 57.06,27.801 57.162,28.189C57.27,28.6 57.38,29.011 57.481,29.423C58.183,32.301 58.667,35.23 58.84,38.185ZM47.759,27.726L47.764,27.732L47.748,27.714L47.759,27.726ZM47.548,27.487L47.585,27.529L47.527,27.458L47.548,27.487Z" style="fill:rgb(255,194,225);"/>
    </g>
    <path d="M46.157,99.71C45.452,98.621 44.326,97.806 42.955,97.529C42.799,97.497 42.663,97.442 42.514,97.391C38.252,95.937 36.608,99.362 36.333,99.929C35.842,100.943 35.05,103.141 37.103,105.447C37.238,105.598 38.319,106.409 38.743,106.722C39.561,107.326 40.387,107.924 41.265,108.441C44.332,110.247 47.876,111.245 51.452,111.11C60.386,110.773 67.97,103.784 67.78,94.595C67.676,89.515 65.039,86.305 61.215,84.346C57.218,82.298 51.515,81.952 47.578,81.952C45.869,81.952 44.141,82.103 42.467,82.466L42.347,81.956C42.026,80.64 41.747,79.317 41.503,77.984C41.346,77.13 41.196,76.273 41.047,75.418L40.973,74.973C41.711,74.608 42.454,74.252 43.197,73.897C44.343,73.347 45.492,72.807 46.664,72.313C48.523,71.529 50.477,71.113 52.338,70.415C54.921,69.446 56.232,66.562 55.263,63.978C54.295,61.394 51.41,60.083 48.826,61.052C46.841,61.797 44.763,62.262 42.78,63.098C41.461,63.654 40.167,64.26 38.877,64.878C38.075,65.262 37.274,65.645 36.478,66.04C33.483,67.523 32.159,68.664 31.444,70.133C30.897,71.255 30.52,72.798 30.91,75.407C30.955,75.707 31.144,76.844 31.196,77.138C31.35,78.022 31.505,78.906 31.667,79.788C31.946,81.31 32.265,82.82 32.631,84.324C32.928,85.542 33.206,86.74 33.196,87.999C33.193,88.241 33.161,88.481 33.125,88.719C33.122,88.738 32.985,89.481 32.964,89.63C32.346,94.063 36.819,95.23 37.074,95.273C37.81,95.398 38.795,95.412 39.917,94.944C40.469,94.713 42.394,93.128 42.394,93.128C42.394,93.128 42.133,93.349 42.07,93.396C42.725,92.904 43.439,92.527 44.235,92.322C45.321,92.043 46.458,91.952 47.578,91.952C49.859,91.952 53.015,91.968 55.608,92.819C56.658,93.164 57.757,93.556 57.782,94.801C57.857,98.446 54.619,100.983 51.075,101.117C49.408,101.18 47.77,100.666 46.34,99.824L46.157,99.71Z" style="fill:rgb(255,194,225);"/>
    <path d="M70.573,63.169C70.224,63.815 69.695,64.809 69.608,65.013C68.736,67.061 68.026,69.161 67.459,71.312C65.902,77.217 65.186,83.603 66.06,89.687C66.664,93.885 68.646,98.357 72.803,100.277C75.93,101.722 79.521,101.813 83.007,100.836C87.567,99.557 91.89,96.413 94.305,93.059C98.002,87.922 97.752,80.098 91.863,76.285C89.14,74.522 85.932,74.354 82.733,75.401C80.323,76.189 77.915,77.732 76.034,79.247C76.288,77.421 76.666,75.614 77.128,73.861C77.563,72.212 78.104,70.6 78.768,69.028C79.03,68.514 80.327,65.945 80.451,65.393C81.04,62.784 79.741,61.239 78.965,60.52C78.096,59.718 76.993,59.184 75.55,59.184C74.919,59.184 73.844,59.243 72.57,60.144C71.508,60.896 70.827,61.988 70.573,63.169ZM86.539,84.762C86.435,84.772 86.245,84.793 86.13,84.822C85.794,84.905 85.459,85.037 85.128,85.191C83.572,85.914 82.131,87.102 81.19,88.014C80.947,88.248 80.839,88.37 80.616,88.613C80.429,88.815 79.265,90.317 79.027,90.625C78.831,90.941 78.597,91.238 78.323,91.511C79.344,91.559 80.425,91.234 81.447,90.809C83.373,90.008 85.142,88.671 86.189,87.216C86.719,86.479 87.261,85.361 86.539,84.762ZM76.832,69.033C77.283,68.914 77.795,68.698 78.346,68.308C77.872,68.643 77.36,68.884 76.832,69.033Z" style="fill:rgb(255,194,225);"/>
</svg>
